<?xml version="1.0" encoding="utf-8"?>
<!-- Generator: Adobe Illustrator 26.0.3, SVG Export Plug-In . SVG Version: 6.00 Build 0)  -->
<svg version="1.1" id="Layer_1" xmlns="http://www.w3.org/2000/svg" xmlns:xlink="http://www.w3.org/1999/xlink" x="0px" y="0px"
	 viewBox="0 0 888.8 237.4" style="enable-background:new 0 0 888.8 237.4;" xml:space="preserve">
<style type="text/css">
	.st0{fill:#FF4B11;}
	.st1{fill:#FFFFFF;}
</style>
<g id="Layer_2_00000167368952387920473810000006879676802608320911_">
	<g id="Layer_1-2">
		<path class="st0" d="M124.2,232.1c-8.6,0-15.5-7-15.5-15.5c0-8.6,7-15.5,15.5-15.5c8.6,0,15.5,7,15.5,15.5
			C139.7,225.1,132.7,232.1,124.2,232.1z"/>
		<path class="st0" d="M46.4,236.1V235c0-42.9,34.8-77.7,77.8-77.8h1.1v31h-1.1c-25.8,0-46.7,21-46.7,46.8v1.1L46.4,236.1z"/>
		<path class="st0" d="M205.6,172.9c-8.6,0-15.5-6.9-15.5-15.5c0-1.6,0.3-3.3,0.8-4.8c2.1-6.4,8-10.7,14.8-10.7
			c8.6,0,15.5,7,15.5,15.5c0,1.6-0.3,3.2-0.8,4.8C218.3,168.6,212.4,172.9,205.6,172.9z"/>
		<path class="st0" d="M199.2,237c-40.8-13.3-63.2-57.2-49.9-98l0.4-1.1l29.5,9.6l-0.4,1.1c-7.9,24.5,5.5,50.9,30,58.9l1.1,0.3
			l-9.6,29.5L199.2,237z"/>
		<path class="st0" d="M174.5,77.1c-8.6,0-15.5-7-15.5-15.6c0-3.3,1-6.4,3-9.1c2.9-4,7.6-6.4,12.5-6.4c8.6,0,15.5,7,15.5,15.5
			c0,3.3-1,6.5-3,9.1C184.2,74.7,179.5,77.1,174.5,77.1z"/>
		<path class="st0" d="M185.3,124.4c-16.4,0-32.4-5.2-45.6-14.8l-0.9-0.7L157,83.8l0.9,0.7c7.9,5.8,17.5,8.9,27.4,8.9
			c2.5,0,5-0.2,7.4-0.6c12.3-1.9,23.2-8.6,30.5-18.7l0.7-0.9L249,91.4l-0.7,0.9C233.6,112.5,210.2,124.4,185.3,124.4z"/>
		<path class="st0" d="M73.8,77.1c-8.6,0-15.5-6.9-15.5-15.5c0-5,2.4-9.7,6.4-12.6c2.6-1.9,5.8-3,9.1-3c8.6,0,15.5,6.9,15.5,15.5
			c0,5-2.4,9.7-6.4,12.6C80.3,76,77.1,77.1,73.8,77.1z"/>
		<path class="st0" d="M89.5,85.1l0.9-0.7c20.9-15.2,25.5-44.4,10.3-65.3l-0.7-0.9L125.2,0l0.7,0.9c25.2,34.8,17.5,83.4-17.2,108.6
			l-0.9,0.7L89.5,85.1z"/>
		<path class="st0" d="M42.7,172.9c-8.6,0-15.6-6.9-15.6-15.5s6.9-15.6,15.5-15.6c8.6,0,15.6,6.9,15.6,15.5
			c0,6.7-4.3,12.7-10.7,14.8C45.9,172.6,44.3,172.9,42.7,172.9z"/>
		<path class="st0" d="M69.6,148.6c-6.3-19.2-24.2-32.3-44.4-32.3c-4.9,0-9.8,0.8-14.5,2.3L9.6,119L0,89.4l1.1-0.3
			c7.8-2.5,15.9-3.8,24.1-3.8c12.3,0,24.3,2.9,35.2,8.5c18.4,9.3,32.3,25.6,38.7,45.2l0.3,1.1l-29.5,9.6L69.6,148.6z"/>
		<path class="st1" d="M734,125.2c-2.6,8-4.6,16.2-6.1,24.5h-2.3c-1.5-8.3-3.5-16.6-6.1-24.6l-18.4-54.3h-30.3v2L710.3,173h32.8
			l39.5-100.3v-2.1h-30.3L734,125.2z"/>
		<path class="st1" d="M859.5,137.7v2.7c0,5.9-4.6,13.8-20.3,13.8c-15.3,0-23.8-8.6-23.8-28.8h72.1c0.7-5.8,1.2-11.6,1.3-17.4
			c0-23-17.8-39.5-49.1-39.5c-37.2,0-53.5,23.4-53.5,53.3c0,33.9,18,53.3,52.9,53.3c42.2,0,48.9-21.3,48.9-33c0-1.3-0.2-2.5-0.4-3.8
			L859.5,137.7z M839.9,88.2c11.5,0,21.3,5.8,21.3,17.3c0,0.9-0.1,1.8-0.2,2.7h-44.7C817.5,94.2,826.5,88.2,839.9,88.2z"/>
		<path class="st1" d="M546.8,70.6h-20.5v23.8h20.5v78.6h30.1V94.4h49.7v78.6h30.1V70.6h-79.8v-5.4c0-13.2,2.5-20.2,22.2-20.2h57.6
			V20.4h-60.6C559.3,20.4,546.8,32.3,546.8,70.6z"/>
		<path class="st1" d="M366.6,70.6h-25.1c-5,11.1-14.6,16.9-29.5,16.9h-11.4V111h35.1v37.4h-35.1v24.7h101.2v-24.8h-35.1V70.6z"/>
		<path class="st1" d="M478.3,119.1c-13.6,0-24.9,4.8-30.5,9.4h-1.7l2.7-34.1h64.4V70.6h-90.5l-7.5,79h28.6
			c4-5.6,12.1-10.9,22.4-10.9c16.7,0,27.2,8.8,27.2,27.2c0,15.5-9.6,27-25.7,27c-18.8,0-25.1-11.7-25.1-22.8c0-0.8,0.1-1.7,0.2-2.5
			l-30.7,0.6c-0.3,1.2-0.4,2.5-0.4,3.8c0,23.4,17.4,44.9,56.9,44.9c33.2,0,57.5-19.7,57.5-51.4C526,136.7,508.2,119.1,478.3,119.1z"
			/>
	</g>
</g>
</svg>
