<svg xmlns="http://www.w3.org/2000/svg" xmlns:xlink="http://www.w3.org/1999/xlink" version="1.1" viewBox="0 0 96 96" x="0px" y="0px" width="96px" height="96px"><path d="M82 96h-68c-1.104 0-2-0.9-2-2v-74.084c0-0.492 0.18-0.964 0.508-1.332l16-17.916c0.38-0.424 0.92-0.668 1.492-0.668h52c1.1 0 2 0.896 2 2v92c0 1.1-0.9 2-2 2zM16 92h64v-88h-49.104l-14.896 16.676v71.324z" fill="#000000"/><path d="M30 24h-14c-1.104 0-2-0.896-2-2s0.896-2 2-2h12v-16c0-1.104 0.896-2 2-2s2 0.896 2 2v18c0 1.104-0.896 2-2 2z" fill="#000000"/></svg>