<svg xmlns="http://www.w3.org/2000/svg" style="display: none;">
    <symbol id="arrow-left" width="17" height="16" fill="none" viewBox="0 0 17 16">
      <path d="M15.9463 6.94664L4.17683 6.94664L9.31874 1.80489C9.72967 1.39398 9.72968 0.719651 9.31874 0.308732C8.90781 -0.102185 8.244 -0.102185 7.83307 0.308732L0.889379 7.25219C0.478446 7.66311 0.478446 8.3269 0.889378 8.73782L7.82253 15.6918C8.23346 16.1027 8.89727 16.1027 9.30821 15.6918C9.71914 15.2809 9.71914 14.6171 9.30821 14.2062L4.17683 9.05391L15.9463 9.05391C16.5258 9.05391 17 8.57977 17 8.00027C17 7.42077 16.5258 6.94664 15.9463 6.94664Z" fill="#1A0D3F"/>
    </symbol>

    <symbol id="arrow-right" width="17" height="16" fill="none" viewBox="0 0 17 16">
      <path d="M1.05367 9.05385H12.8232L7.68126 14.1956C7.27033 14.6065 7.27033 15.2808 7.68126 15.6918C8.09219 16.1027 8.756 16.1027 9.16693 15.6918L16.1106 8.7483C16.5216 8.33738 16.5216 7.67359 16.1106 7.26267L9.17747 0.308677C8.76654 -0.102241 8.10273 -0.102241 7.6918 0.308677C7.28086 0.719595 7.28086 1.38339 7.6918 1.7943L12.8232 6.94658H1.05367C0.474152 6.94658 0 7.42072 0 8.00022C0 8.57972 0.474152 9.05385 1.05367 9.05385Z" fill="#1A0D3F"/>
    </symbol>
</svg>
