<svg width="120" height="24" viewBox="0 0 120 24" fill="none" xmlns="http://www.w3.org/2000/svg">
<path d="M11.9998 17.5195L16.1498 20.0295C16.9098 20.4895 17.8398 19.8095 17.6398 18.9495L16.5398 14.2295L20.2098 11.0495C20.8798 10.4695 20.5198 9.36952 19.6398 9.29952L14.8098 8.88952L12.9198 4.42952C12.5798 3.61952 11.4198 3.61952 11.0798 4.42952L9.18983 8.87952L4.35983 9.28952C3.47983 9.35952 3.11983 10.4595 3.78983 11.0395L7.45983 14.2195L6.35983 18.9395C6.15983 19.7995 7.08983 20.4795 7.84983 20.0195L11.9998 17.5195Z" fill="#F4AE2A"/>
<path d="M35.9998 17.5195L40.1498 20.0295C40.9098 20.4895 41.8398 19.8095 41.6398 18.9495L40.5398 14.2295L44.2098 11.0495C44.8798 10.4695 44.5198 9.36952 43.6398 9.29952L38.8098 8.88952L36.9198 4.42952C36.5798 3.61952 35.4198 3.61952 35.0798 4.42952L33.1898 8.87952L28.3598 9.28952C27.4798 9.35952 27.1198 10.4595 27.7898 11.0395L31.4598 14.2195L30.3598 18.9395C30.1598 19.7995 31.0898 20.4795 31.8498 20.0195L35.9998 17.5195Z" fill="#F4AE2A"/>
<path d="M59.9998 17.5195L64.1498 20.0295C64.9098 20.4895 65.8398 19.8095 65.6398 18.9495L64.5398 14.2295L68.2098 11.0495C68.8798 10.4695 68.5198 9.36952 67.6398 9.29952L62.8098 8.88952L60.9198 4.42952C60.5798 3.61952 59.4198 3.61952 59.0798 4.42952L57.1898 8.87952L52.3598 9.28952C51.4798 9.35952 51.1198 10.4595 51.7898 11.0395L55.4598 14.2195L54.3598 18.9395C54.1598 19.7995 55.0898 20.4795 55.8498 20.0195L59.9998 17.5195Z" fill="#F4AE2A"/>
<path d="M83.9998 17.5195L88.1498 20.0295C88.9098 20.4895 89.8398 19.8095 89.6398 18.9495L88.5398 14.2295L92.2098 11.0495C92.8798 10.4695 92.5198 9.36952 91.6398 9.29952L86.8098 8.88952L84.9198 4.42952C84.5798 3.61952 83.4198 3.61952 83.0798 4.42952L81.1898 8.87952L76.3598 9.28952C75.4798 9.35952 75.1198 10.4595 75.7898 11.0395L79.4598 14.2195L78.3598 18.9395C78.1598 19.7995 79.0898 20.4795 79.8498 20.0195L83.9998 17.5195Z" fill="#F4AE2A"/>
<path d="M108 17.5195L112.15 20.0295C112.91 20.4895 113.84 19.8095 113.64 18.9495L112.54 14.2295L116.21 11.0495C116.88 10.4695 116.52 9.36952 115.64 9.29952L110.81 8.88952L108.92 4.42952C108.58 3.61952 107.42 3.61952 107.08 4.42952L105.19 8.87952L100.36 9.28952C99.4798 9.35952 99.1198 10.4595 99.7898 11.0395L103.46 14.2195L102.36 18.9395C102.16 19.7995 103.09 20.4795 103.85 20.0195L108 17.5195V17.5195Z" fill="#F4AE2A"/>
</svg>
