<svg width="52" height="41" viewBox="0 0 52 41" fill="none" xmlns="http://www.w3.org/2000/svg">
<title>Quotes</title>
<path d="M12.1023 41C18.4859 41 23.6726 35.3795 23.6726 29.0898C23.6726 23.4693 20.2148 18.5179 13.4322 18.3841C10.7724 18.2502 10.6394 17.8488 11.4373 16.1091C12.7673 13.165 16.3581 9.01652 20.8798 5.53714C23.1407 3.93128 23.6726 3.39599 22.8747 2.05777C21.5448 -0.351026 17.023 -1.28778 12.5013 2.8607C3.72378 9.95327 0 18.1164 0 26.9487C0 35.3795 4.92072 41 12.1023 41ZM40.2967 41C46.8133 41 52 35.3795 52 29.0898C52 23.4693 48.5422 18.5179 41.7596 18.3841C38.9668 18.2502 38.9668 17.8488 39.6317 16.1091C40.9616 13.165 44.5524 9.01652 49.2072 5.53714C51.335 3.93128 51.867 3.39599 51.069 2.05777C49.8721 -0.351026 45.3504 -1.28778 40.6957 2.8607C32.0512 9.95327 28.1944 18.1164 28.1944 26.9487C28.1944 35.3795 33.1151 41 40.2967 41Z" fill="#FF4B11"/>
</svg>
