<svg width="14" height="14" viewBox="0 0 14 14" fill="none" xmlns="http://www.w3.org/2000/svg">
<path fill-rule="evenodd" clip-rule="evenodd" d="M10.5 3.75C10.5 4.1625 10.1625 4.5 9.75 4.5C9.3375 4.5 9 4.1625 9 3.75V0.75C9 0.3375 9.3375 0 9.75 0C10.1625 0 10.5 0.3375 10.5 0.75V1.5H12.75C13.1625 1.5 13.5 1.8375 13.5 2.25C13.5 2.6625 13.1625 3 12.75 3H10.5V3.75ZM0.75 3C0.3375 3 0 2.6625 0 2.25C0 1.8375 0.3375 1.5 0.75 1.5H7.5V3H0.75ZM0.75 12C0.3375 12 0 11.6625 0 11.25C0 10.8375 0.3375 10.5 0.75 10.5H4.5V12H0.75ZM7.5 12.75V12H12.75C13.1625 12 13.5 11.6625 13.5 11.25C13.5 10.8375 13.1625 10.5 12.75 10.5H7.5V9.75C7.5 9.3375 7.1625 9 6.75 9C6.3375 9 6 9.3375 6 9.75V12.75C6 13.1625 6.3375 13.5 6.75 13.5C7.1625 13.5 7.5 13.1625 7.5 12.75ZM3 6V5.25C3 4.8375 3.3375 4.5 3.75 4.5C4.1625 4.5 4.5 4.8375 4.5 5.25V8.25C4.5 8.6625 4.1625 9 3.75 9C3.3375 9 3 8.6625 3 8.25V7.5H0.75C0.3375 7.5 0 7.1625 0 6.75C0 6.3375 0.3375 6 0.75 6H3ZM13.5 6.75C13.5 6.3375 13.1625 6 12.75 6H6V7.5H12.75C13.1625 7.5 13.5 7.1625 13.5 6.75Z" fill="#1A0D3F"/>
</svg>
