<svg width="8" height="8" viewBox="0 0 8 8" fill="none" xmlns="http://www.w3.org/2000/svg">
<path d="M7.82253 0.183533C7.70917 0.0699177 7.55527 0.00606751 7.39478 0.00606751C7.23428 0.00606751 7.08038 0.0699177 6.96702 0.183533L4 3.14448L1.03299 0.177466C0.919633 0.0638502 0.76573 0 0.605234 0C0.444738 0 0.290835 0.0638502 0.177475 0.177466C-0.0591582 0.414099 -0.0591582 0.796352 0.177475 1.03298L3.14449 4L0.177475 6.96701C-0.0591582 7.20364 -0.0591582 7.58589 0.177475 7.82253C0.414107 8.05916 0.79636 8.05916 1.03299 7.82253L4 4.85551L6.96702 7.82253C7.20365 8.05916 7.5859 8.05916 7.82253 7.82253C8.05917 7.58589 8.05917 7.20364 7.82253 6.96701L4.85552 4L7.82253 1.03298C8.0531 0.802419 8.0531 0.414099 7.82253 0.183533Z" fill="#1A0D3F"/>
</svg>
