<svg width="15" height="20" viewBox="0 0 15 20" fill="none" xmlns="http://www.w3.org/2000/svg">
<path d="M14.9946 2.62832C14.9935 1.11198 13.8961 0.00938097 12.3829 0.00521235C9.12619 -0.00104058 5.8705 -0.0052092 2.6148 0.0156339C2.21983 0.0177182 1.79671 0.117765 1.43717 0.282426C0.440867 0.740974 0.0125416 1.5945 0.00733087 2.65646C-0.00621714 5.10552 0.00316225 7.55354 0.00316225 10.0026C0.00316225 12.4329 3.57865e-05 14.8643 0.00733087 17.2956C0.00733087 17.5614 0.0333848 17.8375 0.105293 18.0918C0.443994 19.2945 1.38298 19.9969 2.64294 19.9979C5.88196 20.001 9.11994 20.001 12.359 19.9948C12.5986 19.9948 12.8467 19.9646 13.078 19.902C14.2755 19.5779 14.9935 18.6306 14.9946 17.3717C14.9977 12.4569 14.9987 7.54312 14.9946 2.62832ZM2.54811 5.37127C2.64294 5.14512 2.82949 5.01902 3.07231 5.00026C3.28804 4.98463 3.50585 4.99193 3.72261 4.99193C4.98049 4.99193 6.23942 4.99193 7.4973 4.99193C8.92922 4.99193 10.3611 4.9888 11.7931 4.99401C12.3642 4.99609 12.6799 5.46923 12.4173 5.93716C12.3527 6.05284 12.2162 6.14455 12.0922 6.20499C11.989 6.25502 11.8556 6.25502 11.7357 6.25502C8.90734 6.2571 6.07788 6.2571 3.24948 6.25606C3.0202 6.25606 2.79718 6.23417 2.63981 6.03304C2.48245 5.82982 2.4491 5.60471 2.54706 5.37127H2.54811ZM8.63012 13.5126C8.47276 13.746 8.22681 13.7585 7.9819 13.7585C6.55936 13.7606 5.13682 13.7596 3.71428 13.7585C3.5319 13.7585 3.34952 13.7637 3.16819 13.7575C2.74611 13.7429 2.4887 13.498 2.49287 13.1239C2.49704 12.757 2.768 12.4996 3.17652 12.4965C3.58818 12.4934 4.00087 12.4934 4.41252 12.4934C4.82417 12.4934 5.23687 12.4944 5.64852 12.4944C6.06017 12.4944 6.45514 12.4944 6.85846 12.4944C7.26177 12.4944 7.66509 12.4944 8.0684 12.4965C8.32477 12.4965 8.553 12.5767 8.67493 12.8216C8.79166 13.0551 8.77707 13.2927 8.62804 13.5126H8.63012ZM12.4204 9.68371C12.3569 9.79939 12.2224 9.89631 12.0984 9.95467C11.9869 10.0068 11.8452 10.0068 11.7159 10.0068C8.90421 10.0089 6.09247 10.0089 3.28178 10.0089C3.04417 10.0089 2.80864 9.9974 2.64398 9.79001C2.48453 9.58991 2.4491 9.36377 2.54602 9.12928C2.63981 8.90209 2.82428 8.7812 3.06606 8.75202C3.15151 8.7416 3.23905 8.74473 3.32555 8.74473C4.72308 8.74473 6.11957 8.74473 7.5171 8.74473C8.94068 8.74473 10.3632 8.7416 11.7868 8.74577C12.36 8.74785 12.6779 9.21474 12.4204 9.68475V9.68371Z" fill="#1A0D3F"/>
</svg>
