<svg width="16" height="16" viewBox="0 0 16 16" fill="none" xmlns="http://www.w3.org/2000/svg">
<path d="M16 8.0197C15.9606 12.5253 12.3512 16.0326 7.93454 15.9998C3.48508 15.9669 -0.039049 12.348 0.000326765 7.92775C0.0397025 3.52722 3.59664 -0.0326144 8.03298 0.000225399C12.5809 0.0330652 15.9934 3.69142 16 8.0197ZM5.48012 7.98686C5.48012 8.85383 5.48012 9.71424 5.48012 10.5812C5.48012 10.6797 5.48668 10.7782 5.49324 10.8768C5.51293 11.0935 5.62449 11.2577 5.80169 11.3759C6.13638 11.5927 6.46451 11.5401 6.78608 11.3431C8.22329 10.463 9.66051 9.58944 11.0912 8.70277C11.229 8.61739 11.3602 8.47289 11.439 8.32183C11.6293 7.94745 11.4784 7.55338 11.078 7.31036C10.0411 6.67327 8.99768 6.03618 7.96079 5.40566C7.5014 5.1298 7.04858 4.84081 6.58264 4.57809C6.25451 4.39419 5.93294 4.46644 5.677 4.74229C5.51293 4.91963 5.48668 5.1298 5.48668 5.35311C5.48012 6.22665 5.48012 7.10676 5.48012 7.98686Z" fill="white"/>
</svg>
