<svg xmlns="http://www.w3.org/2000/svg" xmlns:xlink="http://www.w3.org/1999/xlink" xmlns:sketch="http://www.bohemiancoding.com/sketch/ns" viewBox="0 0 100 100" version="1.1" x="0px" y="0px" width="100px" height="100px"><title>cog</title><desc>Created with Sketch.</desc><g stroke="none" stroke-width="1" fill="none" fill-rule="evenodd" sketch:type="MSPage"><g sketch:type="MSArtboardGroup" fill="#000000"><path d="M55.8508407,5.944 C56.1128407,5.944 56.3388407,6.026 56.3388407,6.026 L57.6848407,6.166 C57.6848407,6.166 57.6968407,6.164 57.7168407,6.164 C57.8168407,6.164 58.1328407,6.196 58.2888407,6.584 C58.4728407,7.048 58.9368407,7.93 59.2628407,10.528 C59.5868407,13.126 61.1648407,14.888 63.2068407,15.632 C63.6468407,15.792 64.1168407,15.864 64.6008407,15.864 C66.3588407,15.864 68.2888407,14.914 69.5628407,13.822 C71.1868407,12.43 72.4868407,11.966 72.4868407,11.966 C72.4868407,11.966 72.6268407,11.932 72.8168407,11.932 C73.0088407,11.932 73.2528407,11.966 73.4608407,12.104 C73.8788407,12.384 74.7148407,12.986 74.7148407,12.986 C74.7148407,12.986 75.0848407,13.126 75.0848407,13.728 C75.0848407,14.332 75.0108407,14.892 74.6208407,16.374 C74.2328407,17.856 72.9048407,21.106 75.3648407,23.242 C76.8648407,24.544 77.9848407,25.07 79.5288407,25.07 C80.5128407,25.07 81.6688407,24.856 83.2048407,24.494 C83.9868407,24.23 84.5928407,24.14 85.0548407,24.14 C86.0808407,24.14 86.4068407,24.586 86.4068407,24.586 L87.5208407,26.164 C87.5208407,26.164 88.0308407,26.954 86.7328407,28.532 C85.4328407,30.108 84.6908407,31.036 84.6908407,31.036 C84.6908407,31.036 82.6028407,33.588 84.2268407,36.558 C85.8508407,39.528 88.7728407,39.668 88.7728407,39.668 C88.7728407,39.668 91.6968407,40.178 92.3928407,40.41 C93.0888407,40.642 93.3668407,40.642 93.5528407,41.524 C93.7388407,42.404 93.9248407,43.426 93.9248407,43.426 C93.9248407,43.426 94.1088407,43.982 92.8108407,44.632 C91.5108407,45.282 86.2688407,47.602 86.5468407,50.896 C86.8248407,54.19 87.6608407,55.35 92.5328407,58.32 C92.5328407,58.32 93.4608407,58.924 93.2748407,59.666 C93.0888407,60.408 92.7648407,61.662 92.7648407,61.662 C92.7648407,61.662 92.6768407,62.36 91.5708407,62.36 C91.5368407,62.36 91.5008407,62.358 91.4648407,62.358 C91.3428407,62.352 91.1768407,62.348 90.9768407,62.348 C89.1968407,62.348 84.6548407,62.644 83.1128407,65.188 C81.3968407,68.018 82.3248407,71.08 84.6448407,73.864 C85.8448407,75.304 86.0008407,75.652 85.8728407,75.652 C85.7548407,75.652 85.3868407,75.35 85.3868407,75.35 C85.3868407,75.35 85.8968407,75.906 85.3408407,76.51 C84.7828407,77.112 84.1328407,77.948 84.1328407,77.948 C84.1328407,77.948 83.8868407,78.154 83.3228407,78.154 C83.0408407,78.154 82.6788407,78.102 82.2308407,77.948 C81.3248407,77.636 78.8408407,76.566 76.4808407,76.566 C75.3348407,76.566 74.2168407,76.818 73.3228407,77.53 C70.5848407,79.712 71.2808407,83.794 71.6508407,85.79 C71.9408407,87.35 71.8928407,87.52 71.8568407,87.52 C71.8468407,87.52 71.8368407,87.506 71.8368407,87.506 C71.8368407,87.506 72.0228407,88.202 71.3268407,88.528 C70.6308407,88.852 69.4248407,89.502 69.4248407,89.502 L69.4008407,89.502 C69.2668407,89.502 68.5788407,89.462 67.5408407,88.716 C66.5228407,87.982 64.6308407,84.456 61.1988407,84.456 C60.7228407,84.456 60.2168407,84.524 59.6808407,84.676 C55.2728407,85.928 54.9468407,91.08 54.7608407,92.146 C54.7608407,92.146 54.4288407,93.704 53.6008407,93.77 C53.0448407,93.816 52.2568407,93.944 51.6528407,93.944 C51.0488407,93.944 50.4348407,93.354 50.1428407,92.314 C49.9408407,91.594 48.7768407,85.928 44.3208407,85.512 C44.1128407,85.492 43.9108407,85.482 43.7128407,85.482 C39.6588407,85.482 37.5748407,89.382 37.1748407,90.012 C36.7588407,90.674 36.0148407,91.08 36.0148407,91.08 C36.0148407,91.08 35.9168407,91.276 35.4708407,91.276 C35.3048407,91.276 35.0868407,91.248 34.8088407,91.172 C33.7888407,90.894 33.1388407,90.476 33.1388407,90.476 C33.1388407,90.476 32.5348407,90.152 32.5348407,87.692 C32.5348407,85.232 33.4628407,82.356 30.2148407,80.128 C29.2168407,79.444 28.1548407,79.206 27.1648407,79.206 C24.9388407,79.206 23.0688407,80.408 23.0688407,80.408 C23.0688407,80.408 22.0728407,81.126 21.3528407,81.428 C20.9808407,81.584 20.6588407,81.7 20.3068407,81.7 C19.9768407,81.7 19.6208407,81.598 19.1728407,81.336 C18.2448407,80.79 17.8728407,80.176 17.8728407,80.176 C17.8728407,80.176 17.5488407,79.664 17.8728407,78.876 C18.1968407,78.088 19.3108407,75.768 19.3108407,75.768 C19.3108407,75.768 21.8628407,71.638 18.8468407,68.436 C17.6048407,66.97 15.7468407,66.708 14.3888407,66.708 C13.9088407,66.708 13.4908407,66.742 13.1868407,66.766 C12.6908407,66.804 11.9528407,66.902 11.2228407,66.902 C10.2368407,66.902 9.26484075,66.724 8.91684075,65.976 L8.31484075,64.678 C8.31484075,64.678 7.94284075,63.564 10.4028407,61.708 C12.8608407,59.852 14.9488407,56.974 13.9748407,54.19 C13.0008407,51.406 9.75884075,50.2 8.29484075,49.782 C6.82884075,49.364 6.31884075,48.716 6.31884075,48.716 C6.31884075,48.716 5.90084075,48.436 5.94884075,47.926 C5.99484075,47.416 5.94484075,46.302 5.94484075,46.302 C5.94484075,46.302 6.18084075,45.652 6.87684075,45.328 C7.57284075,45.004 9.93884075,44.366 9.93884075,44.366 C9.93884075,44.366 14.5328407,43.24 15.1348407,39.714 C15.7388407,36.188 12.5828407,33.124 11.6088407,32.568 C11.6088407,32.568 10.1008407,31.164 10.4828407,30.086 C10.7488407,29.336 10.9388407,29.226 10.9388407,29.226 C11.4428407,28.344 11.8888407,28.166 12.6648407,28.166 C12.7468407,28.166 12.8308407,28.168 12.9188407,28.172 C13.4348407,28.19 15.2628407,28.63 17.1468407,28.63 C18.6928407,28.63 20.2768407,28.334 21.2028407,27.266 C23.2548407,24.9 23.8808407,22.742 22.3508407,19.472 C20.8188407,16.2 21.7588407,15.886 21.7588407,15.886 C21.7588407,15.886 22.7168407,15.138 23.0108407,14.842 C23.1168407,14.738 23.2208407,14.634 23.4588407,14.634 C23.8988407,14.634 24.7928407,14.986 26.9788407,16.34 C28.6048407,17.346 30.1108407,17.738 31.3708407,17.738 C32.7248407,17.738 33.7948407,17.284 34.4268407,16.652 C35.6448407,15.434 36.6888407,13.904 36.7928407,10.84 C36.8968407,7.778 37.3148407,7.5 37.9068407,7.222 C38.4988407,6.942 39.3688407,6.838 39.3688407,6.838 C39.3688407,6.838 39.4228407,6.792 39.5488407,6.792 C39.8948407,6.792 40.7768407,7.146 42.5348407,9.796 C44.6668407,13.01 46.8028407,13.19 47.2568407,13.19 C47.3128407,13.19 47.3428407,13.186 47.3428407,13.186 C47.3428407,13.186 47.5388407,13.224 47.8728407,13.224 C49.1148407,13.224 52.2628407,12.688 54.1208407,7.598 C54.3048407,7.094 55.0868407,6.212 55.4588407,6.026 C55.5808407,5.964 55.7208407,5.944 55.8508407,5.944 L55.8508407,5.944 Z M49.9388407,73.188 C62.7768407,73.188 73.1828407,62.78 73.1828407,49.944 C73.1828407,37.106 62.7768407,26.7 49.9388407,26.7 C37.1008407,26.7 26.6948407,37.106 26.6948407,49.944 C26.6948407,62.78 37.1008407,73.188 49.9388407,73.188 L49.9388407,73.188 Z M55.8528407,2 L55.8508407,2 C55.0828407,2 54.3548407,2.168 53.6928407,2.498 C52.4088407,3.14 50.9388407,4.818 50.4188407,6.238 C49.6388407,8.374 48.6408407,9.198 47.9748407,9.276 C47.7928407,9.218 47.6768407,9.2 47.5628407,9.2 C47.5028407,9.2 47.4428407,9.204 47.3728407,9.212 C47.1288407,9.092 46.5488407,8.712 45.8208407,7.616 C44.2568407,5.258 42.2888407,2.848 39.5488407,2.846 C39.1688407,2.846 38.7928407,2.896 38.4348407,2.992 C37.8848407,3.086 37.0168407,3.282 36.2268407,3.652 C33.2848407,5.038 32.9508407,7.78 32.8508407,10.706 C32.7868407,12.578 32.2568407,13.234 31.7508407,13.748 C31.6868407,13.768 31.5628407,13.794 31.3708407,13.794 C30.9928407,13.794 30.1908407,13.688 29.0528407,12.984 C26.2808407,11.27 24.8688407,10.69 23.4588407,10.69 C22.6048407,10.69 21.3508407,10.926 20.2228407,12.054 C20.0588407,12.206 19.7068407,12.486 19.4968407,12.65 C18.8208407,13.112 18.2728407,13.774 17.9328407,14.566 C16.9868407,16.772 17.8868407,19.24 18.7788407,21.144 C19.5048407,22.694 19.4488407,23.24 18.3348407,24.552 C18.1968407,24.598 17.8388407,24.686 17.1468407,24.686 C16.1768407,24.686 15.1448407,24.518 14.3928407,24.394 C13.8588407,24.308 13.4748407,24.246 13.0648407,24.23 C12.9268407,24.224 12.7928407,24.222 12.6648407,24.222 C10.5608407,24.222 8.91284075,25.11 7.76284075,26.864 C7.26084075,27.5 6.96484075,28.206 6.76684075,28.766 C5.84484075,31.362 7.27684075,33.924 8.92084075,35.454 C9.11884075,35.638 9.33684075,35.802 9.56684075,35.942 C10.0688407,36.32 11.4468407,37.88 11.2468407,39.048 C11.1628407,39.548 9.92084075,40.29 8.96284075,40.544 C7.90684075,40.83 6.08484075,41.346 5.20884075,41.754 C3.18684075,42.698 2.42284075,44.444 2.23684075,44.958 C2.06084075,45.444 1.98084075,45.962 2.00484075,46.478 C2.02284075,46.892 2.02884075,47.422 2.01884075,47.588 C1.88084075,49.096 2.50884075,50.624 3.64284075,51.622 C4.24684075,52.212 5.36684075,53.05 7.21284075,53.576 C8.76284075,54.018 10.0128407,54.806 10.2528407,55.494 C10.4088407,55.942 9.70684075,57.292 8.02684075,58.56 C3.76484075,61.776 4.19084075,64.782 4.57284075,65.924 C4.61884075,66.066 4.67484075,66.204 4.73684075,66.338 L5.34084075,67.638 C5.89684075,68.836 7.40084075,70.846 11.2228407,70.846 C11.9508407,70.846 12.6308407,70.78 13.1268407,70.732 L13.4968407,70.696 C13.7228407,70.68 14.0328407,70.652 14.3888407,70.652 C15.1088407,70.652 15.6648407,70.78 15.8388407,70.986 C15.8828407,71.038 15.9288407,71.09 15.9768407,71.14 C16.8468407,72.064 16.0228407,73.576 15.9248407,73.746 C15.8528407,73.864 15.8168407,73.934 15.7548407,74.06 C15.5608407,74.464 14.5768407,76.524 14.2268407,77.374 C13.4128407,79.352 13.8568407,81.212 14.5448407,82.292 C14.7628407,82.656 15.5588407,83.786 17.1748407,84.736 C18.2148407,85.346 19.2388407,85.644 20.3068407,85.644 C21.3568407,85.644 22.1968407,85.352 22.8788407,85.064 C23.8148407,84.672 24.8088407,84.008 25.2408407,83.702 C25.5128407,83.55 26.3828407,83.15 27.1648407,83.15 C27.5928407,83.15 27.8288407,83.274 27.9848407,83.382 C28.6908407,83.866 28.8008407,83.94 28.6608407,86.08 C28.6248407,86.628 28.5908407,87.168 28.5908407,87.692 C28.5908407,88.858 28.5908407,92.358 31.1048407,93.856 C31.4768407,94.084 32.4248407,94.61 33.7708407,94.978 C34.3708407,95.14 34.9248407,95.22 35.4708407,95.22 C36.5868407,95.22 37.6188407,94.86 38.4128407,94.232 C38.9908407,93.844 39.8628407,93.142 40.5108407,92.118 L40.6468407,91.898 C41.6488407,90.234 42.6528407,89.426 43.7128407,89.426 C43.7908407,89.426 43.8708407,89.43 43.9528407,89.438 C44.8408407,89.522 45.7088407,90.892 46.2728407,93.104 L46.3448407,93.38 C47.1148407,96.118 49.1988407,97.888 51.6528407,97.888 C52.2768407,97.888 52.9068407,97.814 53.4128407,97.756 C53.5948407,97.736 53.7688407,97.714 53.9208407,97.702 C56.2348407,97.514 58.0348407,95.702 58.6188407,92.972 C58.6288407,92.922 58.6388407,92.872 58.6468407,92.822 C58.6688407,92.698 58.6928407,92.534 58.7208407,92.336 C59.0548407,89.936 59.6648407,88.78 60.7588407,88.47 C60.9228407,88.424 61.0708407,88.4 61.1988407,88.4 C61.9628407,88.4 62.9168407,89.504 63.6128407,90.312 C64.1228407,90.902 64.6028407,91.46 65.2368407,91.916 C67.0848407,93.248 68.6388407,93.446 69.4008407,93.446 C69.4908407,93.446 69.6048407,93.442 69.6928407,93.436 C70.2528407,93.398 70.7988407,93.24 71.2928407,92.974 C71.3108407,92.966 72.3768407,92.39 72.9948407,92.102 C74.8348407,91.242 75.7068407,89.566 75.7948407,87.962 C75.8988407,87.054 75.7208407,86.1 75.5288407,85.068 C75.0708407,82.61 75.1568407,81.112 75.7788407,80.616 C75.7808407,80.614 75.9528407,80.51 76.4808407,80.51 C77.7948407,80.51 79.4748407,81.134 80.3768407,81.47 C80.6008407,81.552 80.7928407,81.624 80.9448407,81.676 C81.7568407,81.956 82.5568407,82.098 83.3228407,82.098 C85.0548407,82.098 86.1568407,81.396 86.6588407,80.978 C86.8748407,80.798 87.0728407,80.592 87.2448407,80.37 C87.3988407,80.172 87.8788407,79.574 88.2368407,79.184 C88.5848407,78.808 88.8548407,78.412 89.0588407,78.002 C89.2208407,77.788 89.3608407,77.556 89.4788407,77.308 C90.6188407,74.872 89.0548407,72.996 87.6748407,71.34 C85.5448407,68.784 86.2528407,67.616 86.4848407,67.232 C86.8108407,66.868 88.6168407,66.292 90.9768407,66.292 C91.1148407,66.292 91.2288407,66.294 91.3128407,66.298 L91.5708407,66.304 C94.3888407,66.304 96.1768407,64.476 96.6088407,62.55 C96.6888407,62.234 96.9448407,61.25 97.1008407,60.622 C97.7408407,58.06 96.1988407,56 94.6808407,55.014 C94.6488407,54.992 94.6168407,54.972 94.5848407,54.952 C90.8408407,52.67 90.6328407,52.318 90.4968407,50.81 C90.7208407,50.476 91.5088407,49.656 94.2408407,48.324 L94.5748407,48.16 C97.6188407,46.638 98.0648407,44.234 97.8008407,42.72 L97.8048407,42.72 C97.8048407,42.72 97.6088407,41.642 97.4128407,40.71 C96.7728407,37.67 94.6028407,36.976 93.7868407,36.716 L93.6408407,36.668 C92.8348407,36.4 90.9168407,36.038 89.4528407,35.782 C89.2308407,35.744 89.2248407,35.726 89.0728407,35.726 L89.0288407,35.726 C88.7568407,35.672 88.1248407,35.466 87.6868407,34.666 C87.3648407,34.076 87.7388407,33.538 87.7428407,33.534 C87.7808407,33.488 88.5088407,32.578 89.7768407,31.038 C92.0868407,28.232 91.8368407,25.574 90.8328407,24.022 C90.8028407,23.978 90.7728407,23.934 90.7428407,23.89 L89.6288407,22.312 C88.6508407,20.97 86.9548407,20.196 85.0548407,20.196 C84.1528407,20.196 83.1748407,20.364 82.1408407,20.692 C81.1968407,20.912 80.1748407,21.126 79.5288407,21.126 C79.2008407,21.126 78.9428407,21.126 77.9488407,20.262 C77.7228407,19.832 78.1208407,18.47 78.2528407,18.024 C78.3228407,17.786 78.3848407,17.568 78.4368407,17.376 C78.8848407,15.664 79.0288407,14.778 79.0288407,13.728 C79.0288407,11.986 78.1788407,10.456 76.8088407,9.636 C76.5108407,9.422 75.9688407,9.036 75.6488407,8.824 C74.8288407,8.276 73.8488407,7.986 72.8168407,7.986 C72.2288407,7.986 71.7568407,8.082 71.5288407,8.14 C71.4048407,8.17 71.2808407,8.208 71.1608407,8.252 C70.8288407,8.37 69.0688407,9.05 66.9968407,10.828 C66.1988407,11.51 65.1528407,11.918 64.6008407,11.918 C63.7608407,11.636 63.2968407,11.002 63.1768407,10.038 C62.8168407,7.17 62.2568407,5.844 61.9868407,5.208 C61.2728407,3.424 59.7028407,2.304 57.9188407,2.224 L57.0488407,2.136 C56.7188407,2.06 56.3088407,2 55.8528407,2 L55.8528407,2 Z M49.9388407,69.244 C39.2968407,69.244 30.6388407,60.586 30.6388407,49.944 C30.6388407,39.302 39.2968407,30.644 49.9388407,30.644 C60.5808407,30.644 69.2388407,39.302 69.2388407,49.944 C69.2388407,60.586 60.5808407,69.244 49.9388407,69.244 L49.9388407,69.244 Z" sketch:type="MSShapeGroup"/></g></g></svg>