<svg width="120" height="40" viewBox="0 0 120 40" fill="none" xmlns="http://www.w3.org/2000/svg">
<title>Apple App Store badge</title>
<rect x="0.5" y="0.5" width="119" height="39" rx="5.5" stroke="white" stroke-opacity="0.2"/>
<path d="M23.9965 19.042C24.0077 18.1741 24.2383 17.323 24.6667 16.5681C25.0952 15.8132 25.7077 15.1789 26.4471 14.7243C25.9774 14.0534 25.3576 13.5013 24.6372 13.1118C23.9167 12.7223 23.1153 12.5062 22.2967 12.4806C20.5505 12.2973 18.8576 13.5255 17.9677 13.5255C17.0607 13.5255 15.6906 12.4988 14.2153 12.5291C13.261 12.5599 12.331 12.8374 11.5158 13.3346C10.7007 13.8317 10.0282 14.5315 9.56389 15.3658C7.55278 18.8478 9.05289 23.9652 10.9794 26.7798C11.9433 28.158 13.0698 29.6976 14.5438 29.643C15.9862 29.5831 16.5249 28.7232 18.266 28.7232C19.9909 28.7232 20.4963 29.643 22.0003 29.6083C23.548 29.5831 24.5232 28.2239 25.4533 26.8326C26.1458 25.8506 26.6787 24.7652 27.0323 23.6167C26.133 23.2364 25.3657 22.5998 24.8258 21.7863C24.286 20.9728 23.9976 20.0184 23.9965 19.042Z" fill="white"/>
<path d="M21.1559 10.6299C21.9998 9.61682 22.4155 8.31468 22.3149 7C21.0256 7.13541 19.8346 7.75161 18.9793 8.72582C18.5611 9.20174 18.2408 9.75542 18.0368 10.3552C17.8327 10.955 17.7488 11.5891 17.79 12.2213C18.4348 12.228 19.0728 12.0882 19.6558 11.8125C20.2389 11.5369 20.7518 11.1325 21.1559 10.6299Z" fill="white"/>
<path d="M41.3018 26.293H36.5684L35.4316 29.6494H33.4268L37.9102 17.2314H39.9932L44.4766 29.6494H42.4375L41.3018 26.293ZM37.0586 24.7442H40.8106L38.961 19.2969H38.9092L37.0586 24.7442Z" fill="white"/>
<path d="M54.1592 25.1228C54.1592 27.9363 52.6533 29.7439 50.3809 29.7439C49.8052 29.774 49.2327 29.6414 48.7289 29.3612C48.2251 29.0811 47.8104 28.6647 47.5323 28.1599H47.4893V32.6442H45.6309V20.5954H47.4297V22.1013H47.4639C47.7548 21.5988 48.1766 21.1846 48.6842 20.9028C49.1918 20.6209 49.7664 20.482 50.3467 20.5007C52.6446 20.5007 54.1592 22.3171 54.1592 25.1228ZM52.249 25.1228C52.249 23.2898 51.3018 22.0847 49.8565 22.0847C48.4365 22.0847 47.4815 23.3152 47.4815 25.1228C47.4815 26.947 48.4365 28.1687 49.8565 28.1687C51.3018 28.1687 52.249 26.9724 52.249 25.1228H52.249Z" fill="white"/>
<path d="M64.1245 25.1228C64.1245 27.9363 62.6182 29.7439 60.3457 29.7439C59.7701 29.774 59.1976 29.6414 58.6938 29.3612C58.19 29.0811 57.7753 28.6647 57.4971 28.1599H57.4541V32.6442H55.5957V20.5954H57.3945V22.1013H57.4287C57.7197 21.5988 58.1414 21.1846 58.649 20.9028C59.1567 20.6209 59.7312 20.482 60.3115 20.5007C62.6094 20.5007 64.1245 22.3171 64.1245 25.1228ZM62.2139 25.1228C62.2139 23.2898 61.2666 22.0847 59.8213 22.0847C58.4014 22.0847 57.4463 23.3152 57.4463 25.1228C57.4463 26.947 58.4014 28.1687 59.8213 28.1687C61.2666 28.1687 62.2139 26.9724 62.2139 25.1228Z" fill="white"/>
<path d="M70.7095 26.1895C70.8472 27.421 72.0435 28.2295 73.6783 28.2295C75.2447 28.2295 76.3716 27.4209 76.3716 26.3106C76.3716 25.3467 75.6919 24.7696 74.0826 24.374L72.4732 23.9863C70.1929 23.4356 69.1343 22.3691 69.1343 20.6387C69.1343 18.4961 71.0015 17.0244 73.6519 17.0244C76.2769 17.0244 78.0757 18.4961 78.1363 20.6387H76.2603C76.148 19.3994 75.1236 18.6514 73.6265 18.6514C72.1294 18.6514 71.105 19.4082 71.105 20.5098C71.105 21.3877 71.7593 21.9043 73.3599 22.2998L74.7281 22.6357C77.2759 23.2383 78.3335 24.2617 78.3335 26.0781C78.3335 28.4013 76.4839 29.8564 73.5405 29.8564C70.7866 29.8564 68.9272 28.4355 68.8071 26.1894L70.7095 26.1895Z" fill="white"/>
<path d="M82.3462 18.4531V20.5957H84.0679V22.0674H82.3462V27.0586C82.3462 27.834 82.6909 28.1953 83.4477 28.1953C83.6521 28.1918 83.8562 28.1774 84.0591 28.1523V29.6152C83.7188 29.6788 83.3729 29.7076 83.0268 29.7011C81.1938 29.7011 80.479 29.0127 80.479 27.2568V22.0674H79.1626V20.5957H80.479V18.4531H82.3462Z" fill="white"/>
<path d="M85.064 25.123C85.064 22.2744 86.7417 20.4844 89.3579 20.4844C91.9829 20.4844 93.6528 22.2744 93.6528 25.123C93.6528 27.9795 91.9917 29.7617 89.3579 29.7617C86.7251 29.7617 85.064 27.9795 85.064 25.123ZM91.7593 25.123C91.7593 23.1689 90.8638 22.0156 89.3579 22.0156C87.852 22.0156 86.9565 23.1777 86.9565 25.123C86.9565 27.085 87.852 28.2295 89.3579 28.2295C90.8638 28.2295 91.7593 27.085 91.7593 25.123H91.7593Z" fill="white"/>
<path d="M95.1851 20.5953H96.9575V22.1363H97.0005C97.1205 21.6551 97.4024 21.2297 97.799 20.9318C98.1956 20.6339 98.6826 20.4817 99.1783 20.5006C99.3924 20.4998 99.606 20.5231 99.815 20.5699V22.3082C99.5446 22.2256 99.2626 22.1877 98.98 22.1959C98.71 22.185 98.4409 22.2326 98.191 22.3355C97.9412 22.4383 97.7166 22.5941 97.5326 22.792C97.3486 22.9899 97.2096 23.2252 97.1252 23.4819C97.0408 23.7386 97.0129 24.0105 97.0435 24.2789V29.649H95.1851L95.1851 20.5953Z" fill="white"/>
<path d="M108.383 26.9902C108.133 28.6338 106.533 29.7617 104.485 29.7617C101.851 29.7617 100.216 27.9971 100.216 25.166C100.216 22.3262 101.86 20.4844 104.407 20.4844C106.912 20.4844 108.487 22.2051 108.487 24.9502V25.5869H102.092V25.6992C102.063 26.0324 102.104 26.3681 102.215 26.6839C102.325 26.9998 102.501 27.2885 102.731 27.5311C102.962 27.7736 103.241 27.9644 103.551 28.0907C103.86 28.217 104.194 28.276 104.528 28.2637C104.967 28.3048 105.408 28.2031 105.784 27.9737C106.161 27.7442 106.454 27.3993 106.619 26.9902L108.383 26.9902ZM102.101 24.2881H106.627C106.644 23.9885 106.599 23.6887 106.494 23.4075C106.389 23.1263 106.228 22.8697 106.019 22.654C105.811 22.4382 105.56 22.2679 105.282 22.1536C105.005 22.0394 104.707 21.9838 104.407 21.9902C104.104 21.9884 103.804 22.0466 103.524 22.1613C103.244 22.2761 102.989 22.4451 102.775 22.6588C102.561 22.8724 102.391 23.1264 102.275 23.406C102.159 23.6857 102.1 23.9855 102.101 24.2881V24.2881Z" fill="white"/>
<path d="M36.8262 7.88372C37.2158 7.85576 37.6067 7.91462 37.9709 8.05606C38.335 8.19749 38.6632 8.41797 38.9317 8.7016C39.2003 8.98522 39.4026 9.32492 39.524 9.69619C39.6454 10.0675 39.6829 10.461 39.6338 10.8486C39.6338 12.7548 38.6035 13.8506 36.8262 13.8506H34.6709V7.88372H36.8262ZM35.5976 13.0067H36.7226C37.0011 13.0234 37.2797 12.9777 37.5382 12.8731C37.7967 12.7685 38.0287 12.6075 38.2172 12.402C38.4057 12.1964 38.546 11.9514 38.6278 11.6848C38.7097 11.4182 38.7311 11.1366 38.6904 10.8607C38.7281 10.5859 38.7046 10.3061 38.6215 10.0415C38.5383 9.77679 38.3977 9.53379 38.2096 9.32986C38.0216 9.12593 37.7907 8.96612 37.5337 8.86188C37.2766 8.75765 36.9996 8.71156 36.7226 8.72693H35.5976V13.0067Z" fill="white"/>
<path d="M40.6805 11.5971C40.6521 11.3012 40.686 11.0026 40.7798 10.7206C40.8737 10.4385 41.0254 10.1792 41.2254 9.95917C41.4253 9.73919 41.669 9.56342 41.9409 9.44315C42.2127 9.32287 42.5067 9.26074 42.804 9.26074C43.1013 9.26074 43.3952 9.32287 43.6671 9.44315C43.939 9.56342 44.1827 9.73919 44.3826 9.95917C44.5825 10.1792 44.7343 10.4385 44.8281 10.7206C44.922 11.0026 44.9558 11.3012 44.9275 11.5971C44.9564 11.8933 44.9229 12.1923 44.8293 12.4748C44.7357 12.7574 44.5841 13.0172 44.3841 13.2376C44.1841 13.458 43.9402 13.6342 43.6681 13.7547C43.3959 13.8752 43.1016 13.9375 42.804 13.9375C42.5064 13.9375 42.212 13.8752 41.9399 13.7547C41.6678 13.6342 41.4239 13.458 41.2239 13.2376C41.0239 13.0172 40.8722 12.7574 40.7786 12.4748C40.6851 12.1923 40.6516 11.8933 40.6805 11.5971ZM44.0135 11.5971C44.0135 10.6211 43.575 10.0503 42.8055 10.0503C42.033 10.0503 41.5985 10.6211 41.5985 11.5971C41.5985 12.581 42.033 13.1474 42.8055 13.1474C43.575 13.1474 44.0135 12.5771 44.0135 11.5971H44.0135Z" fill="white"/>
<path d="M50.5732 13.8506H49.6514L48.7207 10.5342H48.6504L47.7236 13.8506H46.8105L45.5693 9.34766H46.4707L47.2773 12.7837H47.3438L48.2695 9.34766H49.1221L50.0479 12.7837H50.1182L50.9209 9.34766H51.8096L50.5732 13.8506Z" fill="white"/>
<path d="M52.8535 9.34721H53.709V10.0625H53.7754C53.888 9.80562 54.0781 9.59025 54.3189 9.44644C54.5598 9.30264 54.8395 9.23756 55.1191 9.26029C55.3382 9.24382 55.5582 9.27685 55.7628 9.35695C55.9674 9.43705 56.1514 9.56215 56.3011 9.72299C56.4508 9.88384 56.5623 10.0763 56.6275 10.2861C56.6927 10.4959 56.7099 10.7177 56.6777 10.9351V13.8501H55.7891V11.1583C55.7891 10.4346 55.4746 10.0748 54.8174 10.0748C54.6686 10.0678 54.5201 10.0931 54.3821 10.149C54.244 10.2048 54.1197 10.2898 54.0175 10.3982C53.9154 10.5066 53.8379 10.6358 53.7904 10.7769C53.7429 10.918 53.7264 11.0678 53.7422 11.2159V13.8501H52.8535L52.8535 9.34721Z" fill="white"/>
<path d="M58.0938 7.58984H58.9824V13.8506H58.0938V7.58984Z" fill="white"/>
<path d="M60.2175 11.5972C60.1893 11.3013 60.2231 11.0027 60.317 10.7206C60.4109 10.4385 60.5626 10.1792 60.7626 9.95918C60.9626 9.7392 61.2063 9.56343 61.4782 9.44315C61.75 9.32287 62.044 9.26074 62.3413 9.26074C62.6386 9.26074 62.9326 9.32287 63.2045 9.44315C63.4764 9.56343 63.7201 9.7392 63.92 9.95918C64.12 10.1792 64.2718 10.4385 64.3656 10.7206C64.4595 11.0027 64.4934 11.3013 64.4651 11.5972C64.4939 11.8934 64.4604 12.1924 64.3668 12.4749C64.2732 12.7575 64.1215 13.0173 63.9215 13.2377C63.7215 13.4581 63.4776 13.6342 63.2054 13.7548C62.9333 13.8753 62.639 13.9375 62.3413 13.9375C62.0437 13.9375 61.7493 13.8753 61.4772 13.7548C61.2051 13.6342 60.9612 13.4581 60.7612 13.2377C60.5611 13.0173 60.4095 12.7575 60.3158 12.4749C60.2222 12.1924 60.1887 11.8934 60.2175 11.5972ZM63.5505 11.5972C63.5505 10.6211 63.1121 10.0503 62.3425 10.0503C61.5701 10.0503 61.1355 10.6211 61.1355 11.5972C61.1355 12.5811 61.5701 13.1475 62.3425 13.1475C63.1121 13.1475 63.5505 12.5772 63.5505 11.5972H63.5505Z" fill="white"/>
<path d="M65.4009 12.5771C65.4009 11.7666 66.0044 11.2993 67.0757 11.2329L68.2954 11.1626V10.7739C68.2954 10.2983 67.981 10.0298 67.3735 10.0298C66.8774 10.0298 66.5337 10.2119 66.4351 10.5303H65.5747C65.6655 9.75683 66.3931 9.26074 67.4146 9.26074C68.5435 9.26074 69.1802 9.82274 69.1802 10.7739V13.8506H68.3247V13.2178H68.2544C68.1117 13.4448 67.9113 13.6298 67.6737 13.754C67.436 13.8782 67.1697 13.9372 66.9019 13.9248C66.7128 13.9444 66.5218 13.9243 66.341 13.8656C66.1602 13.8069 65.9938 13.7109 65.8524 13.584C65.711 13.457 65.5977 13.3018 65.52 13.1284C65.4422 12.955 65.4016 12.7672 65.4009 12.5771ZM68.2954 12.1924V11.8159L67.1958 11.8862C66.5757 11.9277 66.2944 12.1387 66.2944 12.5356C66.2944 12.9409 66.646 13.1767 67.1294 13.1767C67.2711 13.1911 67.4142 13.1768 67.5502 13.1347C67.6862 13.0926 67.8123 13.0236 67.9211 12.9317C68.0299 12.8399 68.1191 12.7271 68.1834 12.6001C68.2477 12.4731 68.2858 12.3344 68.2954 12.1924Z" fill="white"/>
<path d="M70.3481 11.5972C70.3481 10.1743 71.0796 9.27296 72.2173 9.27296C72.4987 9.26 72.778 9.3274 73.0225 9.46729C73.267 9.60719 73.4667 9.8138 73.5981 10.063H73.6646V7.58984H74.5532V13.8506H73.7017V13.1392H73.6314C73.4897 13.3866 73.2831 13.5907 73.0339 13.7292C72.7846 13.8676 72.5022 13.9353 72.2173 13.9248C71.0718 13.9248 70.3481 13.0235 70.3481 11.5972ZM71.2661 11.5972C71.2661 12.5523 71.7163 13.127 72.4693 13.127C73.2183 13.127 73.6812 12.544 73.6812 11.6011C73.6812 10.6626 73.2134 10.0713 72.4693 10.0713C71.7212 10.0713 71.2661 10.6499 71.2661 11.5972H71.2661Z" fill="white"/>
<path d="M78.2298 11.5971C78.2015 11.3012 78.2353 11.0026 78.3292 10.7206C78.423 10.4385 78.5748 10.1792 78.7747 9.95917C78.9746 9.73919 79.2183 9.56342 79.4902 9.44315C79.762 9.32287 80.056 9.26074 80.3533 9.26074C80.6506 9.26074 80.9446 9.32287 81.2164 9.44315C81.4883 9.56342 81.732 9.73919 81.9319 9.95917C82.1319 10.1792 82.2836 10.4385 82.3775 10.7206C82.4713 11.0026 82.5052 11.3012 82.4768 11.5971C82.5057 11.8933 82.4722 12.1923 82.3786 12.4748C82.2851 12.7574 82.1334 13.0172 81.9334 13.2376C81.7334 13.458 81.4895 13.6342 81.2174 13.7547C80.9453 13.8752 80.6509 13.9375 80.3533 13.9375C80.0557 13.9375 79.7613 13.8752 79.4892 13.7547C79.2171 13.6342 78.9732 13.458 78.7732 13.2376C78.5732 13.0172 78.4216 12.7574 78.328 12.4748C78.2344 12.1923 78.2009 11.8933 78.2298 11.5971ZM81.5628 11.5971C81.5628 10.6211 81.1243 10.0503 80.3548 10.0503C79.5823 10.0503 79.1478 10.6211 79.1478 11.5971C79.1478 12.581 79.5823 13.1474 80.3548 13.1474C81.1243 13.1474 81.5628 12.5771 81.5628 11.5971Z" fill="white"/>
<path d="M83.6694 9.34721H84.5249V10.0625H84.5913C84.704 9.80562 84.894 9.59025 85.1348 9.44644C85.3757 9.30264 85.6555 9.23756 85.9351 9.26029C86.1542 9.24382 86.3742 9.27685 86.5788 9.35695C86.7834 9.43705 86.9673 9.56215 87.117 9.72299C87.2667 9.88384 87.3783 10.0763 87.4435 10.2861C87.5087 10.4959 87.5258 10.7177 87.4937 10.9351V13.8501H86.605V11.1583C86.605 10.4346 86.2905 10.0748 85.6333 10.0748C85.4846 10.0678 85.336 10.0931 85.198 10.149C85.0599 10.2048 84.9356 10.2898 84.8335 10.3982C84.7313 10.5066 84.6539 10.6358 84.6063 10.7769C84.5588 10.918 84.5423 11.0678 84.5581 11.2159V13.8501H83.6694V9.34721Z" fill="white"/>
<path d="M92.5151 8.22656V9.36816H93.4907V10.1167H92.5151V12.4321C92.5151 12.9038 92.7095 13.1104 93.1519 13.1104C93.2651 13.11 93.3783 13.1031 93.4907 13.0898V13.8301C93.3311 13.8586 93.1694 13.8738 93.0073 13.8755C92.019 13.8755 91.6255 13.5278 91.6255 12.6597V10.1167H90.9106V9.36812H91.6255V8.22656H92.5151Z" fill="white"/>
<path d="M94.7046 7.58984H95.5854V10.0713H95.6558C95.7739 9.81197 95.9691 9.59538 96.2148 9.45103C96.4605 9.30669 96.7447 9.2416 97.0288 9.26465C97.2467 9.25279 97.4646 9.28918 97.6669 9.37122C97.8692 9.45327 98.0508 9.57894 98.199 9.73928C98.3471 9.89961 98.458 10.0907 98.5238 10.2988C98.5896 10.5069 98.6086 10.727 98.5795 10.9434V13.8506H97.69V11.1626C97.69 10.4434 97.355 10.0791 96.7271 10.0791C96.5743 10.0666 96.4207 10.0876 96.2769 10.1406C96.1332 10.1937 96.0027 10.2775 95.8947 10.3862C95.7867 10.495 95.7038 10.626 95.6517 10.7701C95.5997 10.9143 95.5797 11.068 95.5933 11.2207V13.8506H94.7046L94.7046 7.58984Z" fill="white"/>
<path d="M103.761 12.6348C103.641 13.0464 103.379 13.4024 103.022 13.6405C102.666 13.8787 102.237 13.9838 101.81 13.9376C101.514 13.9454 101.219 13.8886 100.946 13.771C100.674 13.6535 100.43 13.4781 100.232 13.257C100.034 13.0358 99.8868 12.7743 99.8001 12.4904C99.7135 12.2066 99.6896 11.9073 99.7301 11.6134C99.6906 11.3185 99.7149 11.0185 99.8014 10.7339C99.8879 10.4492 100.035 10.1864 100.231 9.96335C100.428 9.74028 100.671 9.56211 100.943 9.4409C101.214 9.31969 101.509 9.25828 101.806 9.26082C103.059 9.26082 103.815 10.1168 103.815 11.5308V11.8409H100.635V11.8907C100.621 12.056 100.642 12.2223 100.696 12.379C100.751 12.5358 100.837 12.6795 100.95 12.8009C101.063 12.9224 101.2 13.0189 101.352 13.0843C101.504 13.1497 101.669 13.1825 101.835 13.1807C102.047 13.2062 102.263 13.1679 102.453 13.0707C102.644 12.9735 102.802 12.8218 102.906 12.6348L103.761 12.6348ZM100.635 11.1837H102.91C102.921 11.0325 102.9 10.8807 102.85 10.738C102.799 10.5953 102.718 10.4648 102.614 10.355C102.51 10.2451 102.383 10.1583 102.243 10.1001C102.103 10.042 101.953 10.0137 101.801 10.0172C101.648 10.0152 101.495 10.0441 101.353 10.102C101.21 10.16 101.081 10.2458 100.972 10.3546C100.864 10.4633 100.778 10.5926 100.72 10.735C100.662 10.8774 100.633 11.03 100.635 11.1837H100.635Z" fill="white"/>
</svg>
