<svg width="132" height="40" viewBox="0 0 132 40" fill="none" xmlns="http://www.w3.org/2000/svg">
<title>Google Play Store badge</title>
<rect x="0.5" y="0.5" width="131" height="39" rx="5.5" stroke="white" stroke-opacity="0.2"/>
<path d="M45.4499 10.37C45.4499 11.21 45.1999 11.88 44.6999 12.37C44.1399 12.96 43.3999 13.26 42.4999 13.26C41.6299 13.26 40.8999 12.96 40.2899 12.36C39.6799 11.76 39.3799 11.01 39.3799 10.13C39.3799 9.24 39.6799 8.5 40.2899 7.9C40.8999 7.3 41.6299 7 42.4999 7C42.9299 7 43.3399 7.08 43.7299 7.25C44.1199 7.42 44.4299 7.64 44.6699 7.92L44.1399 8.45C43.7399 7.98 43.1999 7.74 42.4999 7.74C41.8699 7.74 41.3199 7.96 40.8599 8.41C40.3999 8.85 40.1699 9.43 40.1699 10.14C40.1699 10.85 40.3999 11.43 40.8599 11.87C41.3199 12.31 41.8699 12.54 42.4999 12.54C43.1699 12.54 43.7299 12.32 44.1799 11.87C44.4699 11.58 44.6399 11.17 44.6799 10.65H42.4999V9.93H45.4099C45.4299 10.08 45.4499 10.23 45.4499 10.37Z" fill="white"/>
<path d="M50.0601 7.86988H47.3301V9.76988H49.7901V10.4899H47.3301V12.3899H50.0601V13.1299H46.5601V7.12988H50.0601V7.86988Z" fill="white"/>
<path d="M53.3099 13.1299H52.5399V7.86988H50.8599V7.12988H54.9799V7.86988H53.2999V13.1299H53.3099Z" fill="white"/>
<path d="M57.9697 13.1299V7.12988H58.7397V13.1299H57.9697Z" fill="white"/>
<path d="M62.16 13.1299H61.39V7.86988H59.71V7.12988H63.83V7.86988H62.15V13.1299H62.16Z" fill="white"/>
<path d="M71.6399 12.35C71.0499 12.96 70.3199 13.26 69.4399 13.26C68.5599 13.26 67.8299 12.96 67.2399 12.35C66.6499 11.74 66.3599 11 66.3599 10.13C66.3599 9.26 66.6499 8.51 67.2399 7.91C67.8299 7.3 68.5599 7 69.4399 7C70.3099 7 71.0399 7.3 71.6399 7.91C72.2299 8.52 72.5299 9.26 72.5299 10.13C72.5199 11.01 72.2299 11.75 71.6399 12.35ZM67.8099 11.85C68.2499 12.3 68.7999 12.52 69.4399 12.52C70.0799 12.52 70.6299 12.3 71.0699 11.85C71.5099 11.4 71.7399 10.83 71.7399 10.13C71.7399 9.43 71.5199 8.86 71.0699 8.41C70.6299 7.96 70.0799 7.74 69.4399 7.74C68.7999 7.74 68.2499 7.96 67.8099 8.41C67.3699 8.86 67.1399 9.43 67.1399 10.13C67.1399 10.83 67.3699 11.4 67.8099 11.85Z" fill="white"/>
<path d="M73.6099 13.1299V7.12988H74.5499L77.4699 11.7999H77.4999L77.4699 10.6399V7.12988H78.2399V13.1299H77.4399L74.3899 8.23988H74.3599L74.3899 9.39988V13.1299H73.6099Z" fill="white"/>
<path d="M66.1698 21.8797C63.8198 21.8797 61.8998 23.6697 61.8998 26.1297C61.8998 28.5797 63.8198 30.3797 66.1698 30.3797C68.5198 30.3797 70.4398 28.5797 70.4398 26.1297C70.4398 23.6697 68.5198 21.8797 66.1698 21.8797ZM66.1698 28.7097C64.8798 28.7097 63.7698 27.6497 63.7698 26.1297C63.7698 24.5997 64.8798 23.5497 66.1698 23.5497C67.4598 23.5497 68.5698 24.5997 68.5698 26.1297C68.5698 27.6497 67.4498 28.7097 66.1698 28.7097ZM56.8498 21.8797C54.4998 21.8797 52.5798 23.6697 52.5798 26.1297C52.5798 28.5797 54.4998 30.3797 56.8498 30.3797C59.1998 30.3797 61.1198 28.5797 61.1198 26.1297C61.1198 23.6697 59.1998 21.8797 56.8498 21.8797ZM56.8498 28.7097C55.5598 28.7097 54.4498 27.6497 54.4498 26.1297C54.4498 24.5997 55.5598 23.5497 56.8498 23.5497C58.1398 23.5497 59.2498 24.5997 59.2498 26.1297C59.2498 27.6497 58.1398 28.7097 56.8498 28.7097ZM45.7698 23.1897V24.9897H50.0898C49.9598 25.9997 49.6198 26.7497 49.1098 27.2597C48.4798 27.8897 47.4998 28.5797 45.7798 28.5797C43.1198 28.5797 41.0398 26.4397 41.0398 23.7797C41.0398 21.1197 43.1198 18.9797 45.7798 18.9797C47.2098 18.9797 48.2598 19.5397 49.0298 20.2697L50.2998 18.9997C49.2198 17.9697 47.7898 17.1797 45.7698 17.1797C42.1298 17.1797 39.0698 20.1397 39.0698 23.7897C39.0698 27.4297 42.1298 30.3997 45.7698 30.3997C47.7398 30.3997 49.2198 29.7597 50.3798 28.5497C51.5698 27.3597 51.9398 25.6797 51.9398 24.3297C51.9398 23.9097 51.9098 23.5197 51.8398 23.1997H45.7698V23.1897ZM91.0798 24.5897C90.7298 23.6397 89.6498 21.8797 87.4398 21.8797C85.2498 21.8797 83.4298 23.5997 83.4298 26.1297C83.4298 28.5097 85.2298 30.3797 87.6498 30.3797C89.5998 30.3797 90.7298 29.1897 91.1898 28.4997L89.7398 27.5297C89.2598 28.2397 88.5998 28.7097 87.6498 28.7097C86.6998 28.7097 86.0198 28.2697 85.5898 27.4197L91.2798 25.0697L91.0798 24.5897ZM85.2798 26.0097C85.2298 24.3697 86.5498 23.5297 87.4998 23.5297C88.2398 23.5297 88.8698 23.8997 89.0798 24.4297L85.2798 26.0097ZM80.6598 30.1297H82.5298V17.6297H80.6598V30.1297ZM77.5998 22.8297H77.5298C77.1098 22.3297 76.3098 21.8797 75.2898 21.8797C73.1598 21.8797 71.2098 23.7497 71.2098 26.1497C71.2098 28.5297 73.1598 30.3897 75.2898 30.3897C76.2998 30.3897 77.1098 29.9397 77.5298 29.4197H77.5898V30.0297C77.5898 31.6597 76.7198 32.5297 75.3198 32.5297C74.1798 32.5297 73.4698 31.7097 73.1798 31.0197L71.5498 31.6997C72.0198 32.8297 73.2598 34.2097 75.3198 34.2097C77.5098 34.2097 79.3598 32.9197 79.3598 29.7797V22.1397H77.5898V22.8297H77.5998ZM75.4498 28.7097C74.1598 28.7097 73.0798 27.6297 73.0798 26.1497C73.0798 24.6497 74.1598 23.5597 75.4498 23.5597C76.7198 23.5597 77.7198 24.6597 77.7198 26.1497C77.7298 27.6297 76.7298 28.7097 75.4498 28.7097ZM99.8398 17.6297H95.3698V30.1297H97.2398V25.3897H99.8498C101.92 25.3897 103.95 23.8897 103.95 21.5097C103.95 19.1297 101.9 17.6297 99.8398 17.6297ZM99.8798 23.6497H97.2298V19.3597H99.8798C101.28 19.3597 102.07 20.5197 102.07 21.4997C102.07 22.4797 101.28 23.6497 99.8798 23.6497ZM111.42 21.8597C110.07 21.8597 108.67 22.4597 108.09 23.7697L109.75 24.4597C110.1 23.7697 110.76 23.5397 111.45 23.5397C112.41 23.5397 113.4 24.1197 113.41 25.1497V25.2797C113.07 25.0897 112.35 24.7997 111.46 24.7997C109.67 24.7997 107.86 25.7797 107.86 27.6097C107.86 29.2797 109.32 30.3597 110.96 30.3597C112.21 30.3597 112.91 29.7997 113.34 29.1397H113.4V30.1097H115.2V25.3197C115.21 23.0997 113.55 21.8597 111.42 21.8597ZM111.19 28.7097C110.58 28.7097 109.73 28.3997 109.73 27.6497C109.73 26.6897 110.79 26.3197 111.71 26.3197C112.53 26.3197 112.92 26.4997 113.41 26.7397C113.27 27.8897 112.27 28.7097 111.19 28.7097ZM121.77 22.1297L119.63 27.5497H119.57L117.35 22.1297H115.34L118.67 29.7097L116.77 33.9197H118.72L123.85 22.1297H121.77ZM104.97 30.1297H106.84V17.6297H104.97V30.1297Z" fill="white"/>
<path d="M8.46977 7.67059C8.17977 7.98059 8.00977 8.46059 8.00977 9.07059V31.1906C8.00977 31.8106 8.17977 32.2906 8.46977 32.5906L8.53977 32.6606L20.9298 20.2806V20.1306V19.9806L8.53977 7.60059L8.46977 7.67059Z" fill="url(#paint0_linear)"/>
<path d="M25.0602 24.4106L20.9302 20.2806V20.1306V19.9806L25.0602 15.8506L25.1502 15.9006L30.0402 18.6806C31.4402 19.4706 31.4402 20.7706 30.0402 21.5706L25.1502 24.3506L25.0602 24.4106Z" fill="url(#paint1_linear)"/>
<path d="M25.1502 24.3499L20.9302 20.1299L8.47021 32.5899C8.93021 33.0799 9.69021 33.1399 10.5502 32.6499L25.1502 24.3499Z" fill="url(#paint2_linear)"/>
<path d="M25.15 15.9104L10.54 7.61036C9.67996 7.12036 8.91996 7.18036 8.45996 7.67036L20.93 20.1304L25.15 15.9104Z" fill="url(#paint3_linear)"/>
<path opacity="0.2" d="M25.0597 24.2607L10.5397 32.5107C9.72973 32.9707 8.99973 32.9407 8.53973 32.5207L8.46973 32.5907L8.53973 32.6607C9.00973 33.0807 9.72973 33.1107 10.5397 32.6507L25.1497 24.3507L25.0597 24.2607Z" fill="black"/>
<path opacity="0.12" d="M8.46977 32.4508C8.17977 32.1408 8.00977 31.6608 8.00977 31.0508V31.2008C8.00977 31.8208 8.17977 32.3008 8.46977 32.6008L8.53977 32.5308L8.46977 32.4508Z" fill="black"/>
<path opacity="0.12" d="M30.0398 21.4299L25.0498 24.2599L25.1398 24.3499L30.0298 21.5699C30.7298 21.1699 31.0798 20.6499 31.0798 20.1299C31.0298 20.5999 30.6798 21.0699 30.0398 21.4299Z" fill="black"/>
<path opacity="0.25" d="M10.54 7.75031L30.04 18.8303C30.67 19.1903 31.03 19.6503 31.09 20.1303C31.09 19.6103 30.74 19.0803 30.04 18.6903L10.54 7.61031C9.14 6.82031 8 7.48031 8 9.08031V9.23031C8 7.62031 9.15 6.96031 10.54 7.75031Z" fill="white"/>
<defs>
<linearGradient id="paint0_linear" x1="19.8295" y1="8.84029" x2="3.04707" y2="25.6227" gradientUnits="userSpaceOnUse">
<stop stop-color="#00A0FF"/>
<stop offset="0.00657445" stop-color="#00A1FF"/>
<stop offset="0.2601" stop-color="#00BEFF"/>
<stop offset="0.5122" stop-color="#00D2FF"/>
<stop offset="0.7604" stop-color="#00DFFF"/>
<stop offset="1" stop-color="#00E3FF"/>
</linearGradient>
<linearGradient id="paint1_linear" x1="31.8646" y1="20.132" x2="7.66768" y2="20.132" gradientUnits="userSpaceOnUse">
<stop stop-color="#FFE000"/>
<stop offset="0.4087" stop-color="#FFBD00"/>
<stop offset="0.7754" stop-color="#FFA500"/>
<stop offset="1" stop-color="#FF9C00"/>
</linearGradient>
<linearGradient id="paint2_linear" x1="22.8572" y1="22.426" x2="0.0989126" y2="45.1843" gradientUnits="userSpaceOnUse">
<stop stop-color="#FF3A44"/>
<stop offset="1" stop-color="#C31162"/>
</linearGradient>
<linearGradient id="paint3_linear" x1="5.32726" y1="0.306558" x2="15.4899" y2="10.4691" gradientUnits="userSpaceOnUse">
<stop stop-color="#32A071"/>
<stop offset="0.0685" stop-color="#2DA771"/>
<stop offset="0.4762" stop-color="#15CF74"/>
<stop offset="0.8009" stop-color="#06E775"/>
<stop offset="1" stop-color="#00F076"/>
</linearGradient>
</defs>
</svg>
