<?xml version="1.0" encoding="utf-8"?>
<svg viewBox="0 0 33.839 31.986" xmlns="http://www.w3.org/2000/svg">
  <path d="M16.8644 31.2856C15.6967 31.2856 14.7598 30.342 14.7598 29.1963C14.7598 28.0505 15.7103 27.107 16.8644 27.107C18.0186 27.107 18.9691 28.0505 18.9691 29.1963C18.9691 30.342 18.0186 31.2856 16.8644 31.2856Z" fill="#FF4B11" transform="matrix(1.000856, 0, 0, 1, 0, 0)"/>
  <path d="M6.30029 31.8383V31.6765C6.30029 25.8939 11.0392 21.1896 16.8644 21.1896H17.0137V25.3682H16.8644C13.3611 25.3682 10.5232 28.1988 10.5232 31.663V31.8113H6.30029V31.8383Z" fill="#FF4B11" transform="matrix(1.000856, 0, 0, 1, 0, 0)"/>
  <path d="M27.9173 23.3058C27.7001 23.3058 27.4828 23.2654 27.2656 23.198C26.1657 22.8475 25.5547 21.6614 25.9077 20.556C26.1929 19.6934 26.994 19.1138 27.9173 19.1138C28.1346 19.1138 28.3518 19.1542 28.5691 19.2216C29.669 19.5721 30.28 20.7582 29.927 21.8635C29.6418 22.7262 28.8407 23.3058 27.9173 23.3058Z" fill="#FF4B11" transform="matrix(1.000856, 0, 0, 1, 0, 0)"/>
  <path d="M27.0484 31.9461C24.3735 31.0834 22.1873 29.2367 20.911 26.7296C19.6346 24.2359 19.4037 21.3917 20.2728 18.7363L20.3135 18.588L24.3192 19.882L24.2784 20.0303C23.1921 23.3328 25.0252 26.8913 28.352 27.9697L28.5013 28.0101L27.1978 31.9865L27.0484 31.9461Z" fill="#FF4B11" transform="matrix(1.000856, 0, 0, 1, 0, 0)"/>
  <path d="M23.6946 10.3926C23.2465 10.3926 22.8256 10.2578 22.459 9.98819C21.9973 9.66468 21.6986 9.17942 21.6171 8.62677C21.5356 8.07412 21.6578 7.52146 21.9973 7.06316C22.3911 6.52399 23.0293 6.20049 23.7082 6.20049C24.1563 6.20049 24.5772 6.33528 24.9438 6.60487C25.4055 6.92837 25.7042 7.41363 25.7857 7.96628C25.8672 8.51894 25.745 9.07159 25.4055 9.52989C25.0117 10.0691 24.3735 10.3926 23.6946 10.3926Z" fill="#FF4B11" transform="matrix(1.000856, 0, 0, 1, 0, 0)"/>
  <path d="M25.1607 16.7683C22.9202 16.7683 20.7748 16.0809 18.9689 14.7734L18.8467 14.679L21.318 11.2957L21.4402 11.3901C22.5265 12.1719 23.8164 12.5897 25.1607 12.5897C25.5001 12.5897 25.8396 12.5628 26.1655 12.5088C27.8356 12.2393 29.3157 11.3496 30.3069 9.98821L30.402 9.86689L33.8102 12.3201L33.7151 12.4415C31.7327 15.1508 28.5417 16.7683 25.1607 16.7683Z" fill="#FF4B11" transform="matrix(1.000856, 0, 0, 1, 0, 0)"/>
  <path d="M10.0209 10.3926C9.342 10.3926 8.70381 10.0691 8.31003 9.52989C7.98415 9.07159 7.84836 8.51894 7.92983 7.96628C8.01131 7.41363 8.32361 6.92837 8.7717 6.60487C9.13832 6.34876 9.55926 6.20049 10.0073 6.20049C10.6863 6.20049 11.3245 6.52399 11.7182 7.06316C12.0441 7.52146 12.1799 8.07412 12.0984 8.62677C12.017 9.17942 11.7047 9.66468 11.2566 9.98819C10.8899 10.2578 10.469 10.3926 10.0209 10.3926Z" fill="#FF4B11" transform="matrix(1.000856, 0, 0, 1, 0, 0)"/>
  <path d="M12.1528 11.4709L12.275 11.3766C13.6465 10.3926 14.5426 8.92334 14.8142 7.26538C15.0858 5.60741 14.6784 3.93597 13.6872 2.57456L13.5922 2.45324L17.0004 0L17.0954 0.121314C18.752 2.38585 19.4173 5.1626 18.9828 7.92586C18.5483 10.6891 17.0411 13.1154 14.7599 14.7734L14.6377 14.8677L12.1528 11.4709Z" fill="#FF4B11" transform="matrix(1.000856, 0, 0, 1, 0, 0)"/>
  <path d="M5.79795 23.3058C4.88819 23.3058 4.07348 22.7262 3.78834 21.8635C3.4353 20.7717 4.03275 19.5855 5.14618 19.2216C5.36344 19.1542 5.5807 19.1138 5.79795 19.1138C6.70771 19.1138 7.52242 19.6934 7.80757 20.556C8.16061 21.6479 7.56316 22.8341 6.44972 23.198C6.23246 23.2654 6.01521 23.3058 5.79795 23.3058Z" fill="#FF4B11" transform="matrix(1.000856, 0, 0, 1, 0, 0)"/>
  <path d="M9.43706 20.0303C8.9075 18.4263 7.79406 17.1323 6.28685 16.3639C5.37709 15.9056 4.41301 15.6765 3.4082 15.6765C2.74286 15.6765 2.07751 15.7843 1.43932 15.9865L1.30354 16.0404L0 12.0505L0.149364 12.0101C1.22206 11.6596 2.32192 11.4979 3.42178 11.4979C5.09194 11.4979 6.6942 11.8888 8.20141 12.6436C10.7134 13.9107 12.5737 16.0809 13.4563 18.7498L13.497 18.8981L9.49137 20.1921L9.43706 20.0303Z" fill="#FF4B11" transform="matrix(1.000856, 0, 0, 1, 0, 0)"/>
</svg>